<svg xmlns="http://www.w3.org/2000/svg" viewBox="0 0 512 512" fill="currentColor"><path d="M235 0 h42 v1 h-42 z M225 1 h62 v1 h-62 z M217 2 h78 v1 h-78 z M212 3 h88 v1 h-88 z M206 4 h100 v1 h-100 z M201 5 h110 v1 h-110 z M197 6 h118 v1 h-118 z M193 7 h126 v1 h-126 z M189 8 h134 v1 h-134 z M186 9 h140 v1 h-140 z M182 10 h148 v1 h-148 z M179 11 h154 v1 h-154 z M176 12 h160 v1 h-160 z M173 13 h166 v1 h-166 z M170 14 h172 v1 h-172 z M167 15 h178 v1 h-178 z M165 16 h182 v1 h-182 z M162 17 h188 v1 h-188 z M160 18 h192 v1 h-192 z M157 19 h198 v1 h-198 z M155 20 h202 v1 h-202 z M152 21 h208 v1 h-208 z M150 22 h212 v1 h-212 z M148 23 h216 v1 h-216 z M146 24 h220 v1 h-220 z M144 25 h224 v1 h-224 z M142 26 h228 v1 h-228 z M140 27 h232 v1 h-232 z M138 28 h236 v1 h-236 z M136 29 h240 v1 h-240 z M134 30 h244 v1 h-244 z M132 31 h248 v1 h-248 z M131 32 h250 v1 h-250 z M129 33 h254 v1 h-254 z M127 34 h258 v1 h-258 z M125 35 h262 v1 h-262 z M124 36 h264 v1 h-264 z M122 37 h268 v1 h-268 z M120 38 h272 v1 h-272 z M119 39 h274 v1 h-274 z M117 40 h126 v1 h-126 z M269 40 h126 v1 h-126 z M116 41 h116 v1 h-116 z M280 41 h116 v1 h-116 z M114 42 h110 v1 h-110 z M288 42 h110 v1 h-110 z M113 43 h105 v1 h-105 z M294 43 h105 v1 h-105 z M111 44 h101 v1 h-101 z M300 44 h101 v1 h-101 z M110 45 h98 v1 h-98 z M304 45 h98 v1 h-98 z M108 46 h96 v1 h-96 z M308 46 h96 v1 h-96 z M107 47 h93 v1 h-93 z M312 47 h93 v1 h-93 z M106 48 h90 v1 h-90 z M316 48 h90 v1 h-90 z M104 49 h89 v1 h-89 z M319 49 h89 v1 h-89 z M103 50 h87 v1 h-87 z M322 50 h87 v1 h-87 z M102 51 h85 v1 h-85 z M325 51 h85 v1 h-85 z M100 52 h84 v1 h-84 z M328 52 h84 v1 h-84 z M99 53 h82 v1 h-82 z M331 53 h82 v1 h-82 z M98 54 h81 v1 h-81 z M333 54 h81 v1 h-81 z M96 55 h80 v1 h-80 z M336 55 h80 v1 h-80 z M95 56 h78 v1 h-78 z M339 56 h78 v1 h-78 z M94 57 h77 v1 h-77 z M341 57 h77 v1 h-77 z M93 58 h76 v1 h-76 z M343 58 h76 v1 h-76 z M91 59 h76 v1 h-76 z M345 59 h76 v1 h-76 z M90 60 h74 v1 h-74 z M348 60 h74 v1 h-74 z M89 61 h73 v1 h-73 z M350 61 h73 v1 h-73 z M88 62 h72 v1 h-72 z M352 62 h72 v1 h-72 z M87 63 h71 v1 h-71 z M354 63 h71 v1 h-71 z M86 64 h70 v1 h-70 z M356 64 h70 v1 h-70 z M85 65 h69 v1 h-69 z M358 65 h69 v1 h-69 z M83 66 h70 v1 h-70 z M359 66 h70 v1 h-70 z M82 67 h69 v1 h-69 z M361 67 h69 v1 h-69 z M81 68 h68 v1 h-68 z M363 68 h68 v1 h-68 z M80 69 h67 v1 h-67 z M365 69 h67 v1 h-67 z M79 70 h67 v1 h-67 z M366 70 h67 v1 h-67 z M78 71 h66 v1 h-66 z M368 71 h66 v1 h-66 z M77 72 h65 v1 h-65 z M370 72 h65 v1 h-65 z M76 73 h65 v1 h-65 z M371 73 h65 v1 h-65 z M75 74 h64 v1 h-64 z M373 74 h64 v1 h-64 z M74 75 h64 v1 h-64 z M374 75 h64 v1 h-64 z M73 76 h63 v1 h-63 z M376 76 h63 v1 h-63 z M72 77 h63 v1 h-63 z M377 77 h63 v1 h-63 z M71 78 h62 v1 h-62 z M379 78 h62 v1 h-62 z M70 79 h62 v1 h-62 z M380 79 h62 v1 h-62 z M69 80 h62 v1 h-62 z M381 80 h62 v1 h-62 z M68 81 h61 v1 h-61 z M383 81 h61 v1 h-61 z M67 82 h61 v1 h-61 z M384 82 h61 v1 h-61 z M66 83 h61 v1 h-61 z M385 83 h61 v1 h-61 z M66 84 h59 v1 h-59 z M387 84 h59 v1 h-59 z M65 85 h59 v1 h-59 z M388 85 h59 v1 h-59 z M64 86 h59 v1 h-59 z M389 86 h59 v1 h-59 z M63 87 h58 v1 h-58 z M391 87 h58 v1 h-58 z M62 88 h58 v1 h-58 z M392 88 h58 v1 h-58 z M61 89 h58 v1 h-58 z M393 89 h58 v1 h-58 z M60 90 h58 v1 h-58 z M394 90 h58 v1 h-58 z M59 91 h57 v1 h-57 z M396 91 h57 v1 h-57 z M59 92 h56 v1 h-56 z M397 92 h56 v1 h-56 z M58 93 h56 v1 h-56 z M398 93 h56 v1 h-56 z M57 94 h56 v1 h-56 z M399 94 h56 v1 h-56 z M56 95 h56 v1 h-56 z M400 95 h56 v1 h-56 z M55 96 h56 v1 h-56 z M401 96 h56 v1 h-56 z M55 97 h55 v1 h-55 z M402 97 h55 v1 h-55 z M54 98 h55 v1 h-55 z M403 98 h55 v1 h-55 z M53 99 h55 v1 h-55 z M404 99 h55 v1 h-55 z M52 100 h55 v1 h-55 z M405 100 h55 v1 h-55 z M52 101 h53 v1 h-53 z M407 101 h53 v1 h-53 z M51 102 h53 v1 h-53 z M408 102 h53 v1 h-53 z M50 103 h53 v1 h-53 z M409 103 h53 v1 h-53 z M49 104 h53 v1 h-53 z M410 104 h53 v1 h-53 z M49 105 h52 v1 h-52 z M411 105 h52 v1 h-52 z M48 106 h53 v1 h-53 z M411 106 h53 v1 h-53 z M47 107 h53 v1 h-53 z M412 107 h53 v1 h-53 z M46 108 h53 v1 h-53 z M413 108 h53 v1 h-53 z M46 109 h52 v1 h-52 z M414 109 h52 v1 h-52 z M45 110 h52 v1 h-52 z M415 110 h52 v1 h-52 z M44 111 h52 v1 h-52 z M416 111 h52 v1 h-52 z M44 112 h51 v1 h-51 z M417 112 h51 v1 h-51 z M43 113 h51 v1 h-51 z M418 113 h51 v1 h-51 z M42 114 h51 v1 h-51 z M419 114 h51 v1 h-51 z M42 115 h50 v1 h-50 z M420 115 h50 v1 h-50 z M41 116 h50 v1 h-50 z M421 116 h50 v1 h-50 z M40 117 h51 v1 h-51 z M421 117 h51 v1 h-51 z M40 118 h50 v1 h-50 z M255 118 h2 v1 h-2 z M422 118 h50 v1 h-50 z M39 119 h50 v1 h-50 z M250 119 h12 v1 h-12 z M423 119 h50 v1 h-50 z M38 120 h50 v1 h-50 z M247 120 h18 v1 h-18 z M424 120 h50 v1 h-50 z M38 121 h49 v1 h-49 z M245 121 h22 v1 h-22 z M425 121 h49 v1 h-49 z M37 122 h50 v1 h-50 z M244 122 h24 v1 h-24 z M425 122 h50 v1 h-50 z M37 123 h49 v1 h-49 z M243 123 h26 v1 h-26 z M426 123 h49 v1 h-49 z M36 124 h49 v1 h-49 z M242 124 h28 v1 h-28 z M427 124 h49 v1 h-49 z M35 125 h49 v1 h-49 z M241 125 h30 v1 h-30 z M428 125 h49 v1 h-49 z M35 126 h49 v1 h-49 z M240 126 h32 v1 h-32 z M428 126 h49 v1 h-49 z M34 127 h49 v1 h-49 z M239 127 h34 v1 h-34 z M429 127 h49 v1 h-49 z M34 128 h48 v1 h-48 z M239 128 h34 v1 h-34 z M430 128 h48 v1 h-48 z M33 129 h48 v1 h-48 z M238 129 h36 v1 h-36 z M431 129 h48 v1 h-48 z M33 130 h48 v1 h-48 z M237 130 h38 v1 h-38 z M431 130 h48 v1 h-48 z M32 131 h48 v1 h-48 z M237 131 h38 v1 h-38 z M432 131 h48 v1 h-48 z M31 132 h48 v1 h-48 z M237 132 h38 v1 h-38 z M433 132 h48 v1 h-48 z M31 133 h47 v1 h-47 z M236 133 h40 v1 h-40 z M434 133 h47 v1 h-47 z M30 134 h48 v1 h-48 z M236 134 h40 v1 h-40 z M434 134 h48 v1 h-48 z M30 135 h47 v1 h-47 z M236 135 h40 v1 h-40 z M435 135 h47 v1 h-47 z M29 136 h47 v1 h-47 z M236 136 h40 v1 h-40 z M436 136 h47 v1 h-47 z M29 137 h47 v1 h-47 z M236 137 h40 v1 h-40 z M436 137 h47 v1 h-47 z M28 138 h47 v1 h-47 z M236 138 h40 v1 h-40 z M437 138 h47 v1 h-47 z M28 139 h46 v1 h-46 z M236 139 h40 v1 h-40 z M438 139 h46 v1 h-46 z M27 140 h47 v1 h-47 z M236 140 h40 v1 h-40 z M438 140 h47 v1 h-47 z M27 141 h46 v1 h-46 z M236 141 h40 v1 h-40 z M439 141 h46 v1 h-46 z M26 142 h46 v1 h-46 z M236 142 h40 v1 h-40 z M440 142 h46 v1 h-46 z M26 143 h46 v1 h-46 z M236 143 h40 v1 h-40 z M440 143 h46 v1 h-46 z M25 144 h46 v1 h-46 z M236 144 h40 v1 h-40 z M441 144 h46 v1 h-46 z M25 145 h46 v1 h-46 z M236 145 h40 v1 h-40 z M441 145 h46 v1 h-46 z M24 146 h46 v1 h-46 z M236 146 h40 v1 h-40 z M442 146 h46 v1 h-46 z M24 147 h45 v1 h-45 z M236 147 h40 v1 h-40 z M443 147 h45 v1 h-45 z M23 148 h46 v1 h-46 z M236 148 h40 v1 h-40 z M443 148 h46 v1 h-46 z M23 149 h45 v1 h-45 z M236 149 h40 v1 h-40 z M444 149 h45 v1 h-45 z M22 150 h46 v1 h-46 z M236 150 h40 v1 h-40 z M444 150 h46 v1 h-46 z M22 151 h45 v1 h-45 z M236 151 h40 v1 h-40 z M445 151 h45 v1 h-45 z M21 152 h46 v1 h-46 z M236 152 h40 v1 h-40 z M445 152 h46 v1 h-46 z M21 153 h45 v1 h-45 z M236 153 h40 v1 h-40 z M446 153 h45 v1 h-45 z M21 154 h44 v1 h-44 z M236 154 h40 v1 h-40 z M447 154 h44 v1 h-44 z M20 155 h45 v1 h-45 z M236 155 h40 v1 h-40 z M447 155 h45 v1 h-45 z M20 156 h44 v1 h-44 z M236 156 h40 v1 h-40 z M448 156 h44 v1 h-44 z M19 157 h45 v1 h-45 z M236 157 h40 v1 h-40 z M448 157 h45 v1 h-45 z M19 158 h44 v1 h-44 z M236 158 h40 v1 h-40 z M449 158 h44 v1 h-44 z M19 159 h44 v1 h-44 z M236 159 h40 v1 h-40 z M449 159 h44 v1 h-44 z M18 160 h44 v1 h-44 z M236 160 h40 v1 h-40 z M450 160 h44 v1 h-44 z M18 161 h44 v1 h-44 z M236 161 h40 v1 h-40 z M450 161 h44 v1 h-44 z M17 162 h44 v1 h-44 z M236 162 h40 v1 h-40 z M451 162 h44 v1 h-44 z M17 163 h44 v1 h-44 z M236 163 h40 v1 h-40 z M451 163 h44 v1 h-44 z M17 164 h43 v1 h-43 z M236 164 h40 v1 h-40 z M452 164 h43 v1 h-43 z M16 165 h44 v1 h-44 z M236 165 h40 v1 h-40 z M452 165 h44 v1 h-44 z M16 166 h44 v1 h-44 z M236 166 h40 v1 h-40 z M452 166 h44 v1 h-44 z M15 167 h44 v1 h-44 z M236 167 h40 v1 h-40 z M453 167 h44 v1 h-44 z M15 168 h44 v1 h-44 z M236 168 h40 v1 h-40 z M453 168 h44 v1 h-44 z M15 169 h43 v1 h-43 z M236 169 h40 v1 h-40 z M454 169 h43 v1 h-43 z M14 170 h44 v1 h-44 z M236 170 h40 v1 h-40 z M454 170 h44 v1 h-44 z M14 171 h43 v1 h-43 z M236 171 h40 v1 h-40 z M455 171 h43 v1 h-43 z M14 172 h43 v1 h-43 z M236 172 h40 v1 h-40 z M455 172 h43 v1 h-43 z M13 173 h43 v1 h-43 z M236 173 h40 v1 h-40 z M456 173 h43 v1 h-43 z M13 174 h43 v1 h-43 z M236 174 h40 v1 h-40 z M456 174 h43 v1 h-43 z M13 175 h43 v1 h-43 z M236 175 h40 v1 h-40 z M456 175 h43 v1 h-43 z M12 176 h43 v1 h-43 z M236 176 h40 v1 h-40 z M457 176 h43 v1 h-43 z M12 177 h43 v1 h-43 z M236 177 h40 v1 h-40 z M457 177 h43 v1 h-43 z M12 178 h43 v1 h-43 z M236 178 h40 v1 h-40 z M457 178 h43 v1 h-43 z M11 179 h43 v1 h-43 z M236 179 h40 v1 h-40 z M458 179 h43 v1 h-43 z M11 180 h43 v1 h-43 z M236 180 h40 v1 h-40 z M458 180 h43 v1 h-43 z M11 181 h42 v1 h-42 z M236 181 h40 v1 h-40 z M459 181 h42 v1 h-42 z M10 182 h43 v1 h-43 z M236 182 h40 v1 h-40 z M459 182 h43 v1 h-43 z M10 183 h43 v1 h-43 z M236 183 h40 v1 h-40 z M459 183 h43 v1 h-43 z M10 184 h42 v1 h-42 z M236 184 h40 v1 h-40 z M460 184 h42 v1 h-42 z M10 185 h42 v1 h-42 z M236 185 h40 v1 h-40 z M460 185 h42 v1 h-42 z M9 186 h43 v1 h-43 z M236 186 h40 v1 h-40 z M460 186 h43 v1 h-43 z M9 187 h42 v1 h-42 z M236 187 h40 v1 h-40 z M461 187 h42 v1 h-42 z M9 188 h42 v1 h-42 z M236 188 h40 v1 h-40 z M461 188 h42 v1 h-42 z M8 189 h43 v1 h-43 z M236 189 h40 v1 h-40 z M461 189 h43 v1 h-43 z M8 190 h42 v1 h-42 z M236 190 h40 v1 h-40 z M462 190 h42 v1 h-42 z M8 191 h42 v1 h-42 z M236 191 h40 v1 h-40 z M462 191 h42 v1 h-42 z M8 192 h42 v1 h-42 z M236 192 h40 v1 h-40 z M462 192 h42 v1 h-42 z M7 193 h42 v1 h-42 z M236 193 h40 v1 h-40 z M463 193 h42 v1 h-42 z M7 194 h42 v1 h-42 z M236 194 h40 v1 h-40 z M463 194 h42 v1 h-42 z M7 195 h42 v1 h-42 z M236 195 h40 v1 h-40 z M463 195 h42 v1 h-42 z M7 196 h41 v1 h-41 z M236 196 h40 v1 h-40 z M464 196 h41 v1 h-41 z M6 197 h42 v1 h-42 z M236 197 h40 v1 h-40 z M464 197 h42 v1 h-42 z M6 198 h42 v1 h-42 z M236 198 h40 v1 h-40 z M464 198 h42 v1 h-42 z M6 199 h42 v1 h-42 z M236 199 h40 v1 h-40 z M464 199 h42 v1 h-42 z M6 200 h41 v1 h-41 z M236 200 h40 v1 h-40 z M465 200 h41 v1 h-41 z M5 201 h42 v1 h-42 z M236 201 h40 v1 h-40 z M465 201 h42 v1 h-42 z M5 202 h42 v1 h-42 z M236 202 h40 v1 h-40 z M465 202 h42 v1 h-42 z M5 203 h42 v1 h-42 z M236 203 h40 v1 h-40 z M465 203 h42 v1 h-42 z M5 204 h41 v1 h-41 z M236 204 h40 v1 h-40 z M466 204 h41 v1 h-41 z M5 205 h41 v1 h-41 z M236 205 h40 v1 h-40 z M466 205 h41 v1 h-41 z M4 206 h42 v1 h-42 z M236 206 h40 v1 h-40 z M466 206 h42 v1 h-42 z M4 207 h42 v1 h-42 z M236 207 h40 v1 h-40 z M466 207 h42 v1 h-42 z M4 208 h41 v1 h-41 z M236 208 h40 v1 h-40 z M467 208 h41 v1 h-41 z M4 209 h41 v1 h-41 z M236 209 h40 v1 h-40 z M467 209 h41 v1 h-41 z M4 210 h41 v1 h-41 z M236 210 h40 v1 h-40 z M467 210 h41 v1 h-41 z M4 211 h41 v1 h-41 z M236 211 h40 v1 h-40 z M467 211 h41 v1 h-41 z M3 212 h41 v1 h-41 z M236 212 h40 v1 h-40 z M468 212 h41 v1 h-41 z M3 213 h41 v1 h-41 z M236 213 h40 v1 h-40 z M468 213 h41 v1 h-41 z M3 214 h41 v1 h-41 z M236 214 h40 v1 h-40 z M468 214 h41 v1 h-41 z M3 215 h41 v1 h-41 z M236 215 h40 v1 h-40 z M468 215 h41 v1 h-41 z M3 216 h41 v1 h-41 z M236 216 h40 v1 h-40 z M468 216 h41 v1 h-41 z M2 217 h42 v1 h-42 z M236 217 h40 v1 h-40 z M468 217 h42 v1 h-42 z M2 218 h41 v1 h-41 z M236 218 h40 v1 h-40 z M469 218 h41 v1 h-41 z M2 219 h41 v1 h-41 z M236 219 h40 v1 h-40 z M469 219 h41 v1 h-41 z M2 220 h41 v1 h-41 z M236 220 h40 v1 h-40 z M469 220 h41 v1 h-41 z M2 221 h41 v1 h-41 z M236 221 h40 v1 h-40 z M469 221 h41 v1 h-41 z M2 222 h41 v1 h-41 z M236 222 h40 v1 h-40 z M469 222 h41 v1 h-41 z M2 223 h41 v1 h-41 z M236 223 h40 v1 h-40 z M469 223 h41 v1 h-41 z M2 224 h40 v1 h-40 z M236 224 h40 v1 h-40 z M470 224 h40 v1 h-40 z M1 225 h41 v1 h-41 z M236 225 h40 v1 h-40 z M470 225 h41 v1 h-41 z M1 226 h41 v1 h-41 z M236 226 h40 v1 h-40 z M470 226 h41 v1 h-41 z M1 227 h41 v1 h-41 z M236 227 h40 v1 h-40 z M470 227 h41 v1 h-41 z M1 228 h41 v1 h-41 z M236 228 h40 v1 h-40 z M470 228 h41 v1 h-41 z M1 229 h41 v1 h-41 z M236 229 h40 v1 h-40 z M470 229 h41 v1 h-41 z M1 230 h41 v1 h-41 z M236 230 h40 v1 h-40 z M470 230 h41 v1 h-41 z M1 231 h41 v1 h-41 z M236 231 h40 v1 h-40 z M470 231 h41 v1 h-41 z M1 232 h40 v1 h-40 z M236 232 h40 v1 h-40 z M471 232 h40 v1 h-40 z M1 233 h40 v1 h-40 z M236 233 h40 v1 h-40 z M471 233 h40 v1 h-40 z M1 234 h40 v1 h-40 z M236 234 h40 v1 h-40 z M471 234 h40 v1 h-40 z M0 235 h41 v1 h-41 z M236 235 h40 v1 h-40 z M471 235 h41 v1 h-41 z M0 236 h41 v1 h-41 z M236 236 h40 v1 h-40 z M471 236 h41 v1 h-41 z M0 237 h41 v1 h-41 z M236 237 h40 v1 h-40 z M471 237 h41 v1 h-41 z M0 238 h41 v1 h-41 z M236 238 h40 v1 h-40 z M471 238 h41 v1 h-41 z M0 239 h41 v1 h-41 z M236 239 h40 v1 h-40 z M471 239 h41 v1 h-41 z M0 240 h41 v1 h-41 z M236 240 h40 v1 h-40 z M471 240 h41 v1 h-41 z M0 241 h41 v1 h-41 z M236 241 h40 v1 h-40 z M471 241 h41 v1 h-41 z M0 242 h41 v1 h-41 z M236 242 h40 v1 h-40 z M471 242 h41 v1 h-41 z M0 243 h40 v1 h-40 z M236 243 h40 v1 h-40 z M472 243 h40 v1 h-40 z M0 244 h40 v1 h-40 z M236 244 h40 v1 h-40 z M472 244 h40 v1 h-40 z M0 245 h40 v1 h-40 z M236 245 h40 v1 h-40 z M472 245 h40 v1 h-40 z M0 246 h40 v1 h-40 z M236 246 h40 v1 h-40 z M472 246 h40 v1 h-40 z M0 247 h40 v1 h-40 z M236 247 h40 v1 h-40 z M472 247 h40 v1 h-40 z M0 248 h40 v1 h-40 z M236 248 h42 v1 h-42 z M472 248 h40 v1 h-40 z M0 249 h40 v1 h-40 z M236 249 h43 v1 h-43 z M472 249 h40 v1 h-40 z M0 250 h40 v1 h-40 z M236 250 h44 v1 h-44 z M472 250 h40 v1 h-40 z M0 251 h40 v1 h-40 z M236 251 h46 v1 h-46 z M472 251 h40 v1 h-40 z M0 252 h40 v1 h-40 z M236 252 h47 v1 h-47 z M472 252 h40 v1 h-40 z M0 253 h40 v1 h-40 z M236 253 h48 v1 h-48 z M472 253 h40 v1 h-40 z M0 254 h40 v1 h-40 z M236 254 h50 v1 h-50 z M472 254 h40 v1 h-40 z M0 255 h40 v1 h-40 z M236 255 h51 v1 h-51 z M472 255 h40 v1 h-40 z M0 256 h40 v1 h-40 z M236 256 h52 v1 h-52 z M472 256 h40 v1 h-40 z M0 257 h40 v1 h-40 z M236 257 h54 v1 h-54 z M472 257 h40 v1 h-40 z M0 258 h40 v1 h-40 z M236 258 h55 v1 h-55 z M472 258 h40 v1 h-40 z M0 259 h40 v1 h-40 z M236 259 h56 v1 h-56 z M472 259 h40 v1 h-40 z M0 260 h40 v1 h-40 z M236 260 h58 v1 h-58 z M472 260 h40 v1 h-40 z M0 261 h40 v1 h-40 z M236 261 h59 v1 h-59 z M472 261 h40 v1 h-40 z M0 262 h40 v1 h-40 z M236 262 h60 v1 h-60 z M472 262 h40 v1 h-40 z M0 263 h40 v1 h-40 z M237 263 h61 v1 h-61 z M472 263 h40 v1 h-40 z M0 264 h40 v1 h-40 z M237 264 h62 v1 h-62 z M472 264 h40 v1 h-40 z M0 265 h40 v1 h-40 z M237 265 h63 v1 h-63 z M472 265 h40 v1 h-40 z M0 266 h40 v1 h-40 z M238 266 h64 v1 h-64 z M472 266 h40 v1 h-40 z M0 267 h40 v1 h-40 z M238 267 h65 v1 h-65 z M472 267 h40 v1 h-40 z M0 268 h40 v1 h-40 z M239 268 h65 v1 h-65 z M472 268 h40 v1 h-40 z M0 269 h41 v1 h-41 z M240 269 h66 v1 h-66 z M471 269 h41 v1 h-41 z M0 270 h41 v1 h-41 z M240 270 h67 v1 h-67 z M471 270 h41 v1 h-41 z M0 271 h41 v1 h-41 z M241 271 h67 v1 h-67 z M471 271 h41 v1 h-41 z M0 272 h41 v1 h-41 z M242 272 h68 v1 h-68 z M471 272 h41 v1 h-41 z M0 273 h41 v1 h-41 z M244 273 h67 v1 h-67 z M471 273 h41 v1 h-41 z M0 274 h41 v1 h-41 z M245 274 h67 v1 h-67 z M471 274 h41 v1 h-41 z M0 275 h41 v1 h-41 z M246 275 h68 v1 h-68 z M471 275 h41 v1 h-41 z M0 276 h41 v1 h-41 z M247 276 h68 v1 h-68 z M471 276 h41 v1 h-41 z M1 277 h40 v1 h-40 z M249 277 h67 v1 h-67 z M471 277 h40 v1 h-40 z M1 278 h40 v1 h-40 z M250 278 h68 v1 h-68 z M471 278 h40 v1 h-40 z M1 279 h40 v1 h-40 z M251 279 h68 v1 h-68 z M471 279 h40 v1 h-40 z M1 280 h41 v1 h-41 z M253 280 h67 v1 h-67 z M470 280 h41 v1 h-41 z M1 281 h41 v1 h-41 z M254 281 h68 v1 h-68 z M470 281 h41 v1 h-41 z M1 282 h41 v1 h-41 z M255 282 h68 v1 h-68 z M470 282 h41 v1 h-41 z M1 283 h41 v1 h-41 z M257 283 h67 v1 h-67 z M470 283 h41 v1 h-41 z M1 284 h41 v1 h-41 z M258 284 h68 v1 h-68 z M470 284 h41 v1 h-41 z M1 285 h41 v1 h-41 z M259 285 h68 v1 h-68 z M470 285 h41 v1 h-41 z M1 286 h41 v1 h-41 z M261 286 h67 v1 h-67 z M470 286 h41 v1 h-41 z M2 287 h40 v1 h-40 z M262 287 h68 v1 h-68 z M470 287 h40 v1 h-40 z M2 288 h41 v1 h-41 z M263 288 h68 v1 h-68 z M469 288 h41 v1 h-41 z M2 289 h41 v1 h-41 z M265 289 h67 v1 h-67 z M469 289 h41 v1 h-41 z M2 290 h41 v1 h-41 z M266 290 h68 v1 h-68 z M469 290 h41 v1 h-41 z M2 291 h41 v1 h-41 z M267 291 h68 v1 h-68 z M469 291 h41 v1 h-41 z M2 292 h41 v1 h-41 z M269 292 h67 v1 h-67 z M469 292 h41 v1 h-41 z M2 293 h41 v1 h-41 z M270 293 h68 v1 h-68 z M469 293 h41 v1 h-41 z M2 294 h42 v1 h-42 z M271 294 h68 v1 h-68 z M468 294 h42 v1 h-42 z M3 295 h41 v1 h-41 z M273 295 h67 v1 h-67 z M468 295 h41 v1 h-41 z M3 296 h41 v1 h-41 z M274 296 h68 v1 h-68 z M468 296 h41 v1 h-41 z M3 297 h41 v1 h-41 z M275 297 h68 v1 h-68 z M468 297 h41 v1 h-41 z M3 298 h41 v1 h-41 z M277 298 h67 v1 h-67 z M468 298 h41 v1 h-41 z M3 299 h41 v1 h-41 z M278 299 h68 v1 h-68 z M468 299 h41 v1 h-41 z M4 300 h41 v1 h-41 z M279 300 h68 v1 h-68 z M467 300 h41 v1 h-41 z M4 301 h41 v1 h-41 z M281 301 h67 v1 h-67 z M467 301 h41 v1 h-41 z M4 302 h41 v1 h-41 z M282 302 h67 v1 h-67 z M467 302 h41 v1 h-41 z M4 303 h41 v1 h-41 z M283 303 h67 v1 h-67 z M467 303 h41 v1 h-41 z M4 304 h42 v1 h-42 z M285 304 h66 v1 h-66 z M466 304 h42 v1 h-42 z M4 305 h42 v1 h-42 z M286 305 h66 v1 h-66 z M466 305 h42 v1 h-42 z M5 306 h41 v1 h-41 z M287 306 h66 v1 h-66 z M466 306 h41 v1 h-41 z M5 307 h41 v1 h-41 z M289 307 h64 v1 h-64 z M466 307 h41 v1 h-41 z M5 308 h42 v1 h-42 z M290 308 h64 v1 h-64 z M465 308 h42 v1 h-42 z M5 309 h42 v1 h-42 z M291 309 h63 v1 h-63 z M465 309 h42 v1 h-42 z M5 310 h42 v1 h-42 z M293 310 h61 v1 h-61 z M465 310 h42 v1 h-42 z M6 311 h41 v1 h-41 z M294 311 h61 v1 h-61 z M465 311 h41 v1 h-41 z M6 312 h42 v1 h-42 z M295 312 h60 v1 h-60 z M464 312 h42 v1 h-42 z M6 313 h42 v1 h-42 z M297 313 h58 v1 h-58 z M464 313 h42 v1 h-42 z M6 314 h42 v1 h-42 z M298 314 h57 v1 h-57 z M464 314 h42 v1 h-42 z M7 315 h41 v1 h-41 z M299 315 h56 v1 h-56 z M464 315 h41 v1 h-41 z M7 316 h42 v1 h-42 z M301 316 h54 v1 h-54 z M463 316 h42 v1 h-42 z M7 317 h42 v1 h-42 z M302 317 h54 v1 h-54 z M463 317 h42 v1 h-42 z M7 318 h42 v1 h-42 z M303 318 h52 v1 h-52 z M463 318 h42 v1 h-42 z M8 319 h42 v1 h-42 z M305 319 h50 v1 h-50 z M462 319 h42 v1 h-42 z M8 320 h42 v1 h-42 z M306 320 h49 v1 h-49 z M462 320 h42 v1 h-42 z M8 321 h42 v1 h-42 z M307 321 h48 v1 h-48 z M462 321 h42 v1 h-42 z M8 322 h43 v1 h-43 z M309 322 h46 v1 h-46 z M461 322 h43 v1 h-43 z M9 323 h42 v1 h-42 z M310 323 h44 v1 h-44 z M461 323 h42 v1 h-42 z M9 324 h42 v1 h-42 z M311 324 h43 v1 h-43 z M461 324 h42 v1 h-42 z M9 325 h43 v1 h-43 z M313 325 h41 v1 h-41 z M460 325 h43 v1 h-43 z M10 326 h42 v1 h-42 z M314 326 h39 v1 h-39 z M460 326 h42 v1 h-42 z M10 327 h42 v1 h-42 z M315 327 h38 v1 h-38 z M460 327 h42 v1 h-42 z M10 328 h43 v1 h-43 z M317 328 h35 v1 h-35 z M459 328 h43 v1 h-43 z M10 329 h43 v1 h-43 z M318 329 h33 v1 h-33 z M459 329 h43 v1 h-43 z M11 330 h42 v1 h-42 z M319 330 h31 v1 h-31 z M459 330 h42 v1 h-42 z M11 331 h43 v1 h-43 z M321 331 h28 v1 h-28 z M458 331 h43 v1 h-43 z M11 332 h43 v1 h-43 z M322 332 h26 v1 h-26 z M458 332 h43 v1 h-43 z M12 333 h43 v1 h-43 z M324 333 h23 v1 h-23 z M457 333 h43 v1 h-43 z M12 334 h43 v1 h-43 z M325 334 h20 v1 h-20 z M457 334 h43 v1 h-43 z M12 335 h43 v1 h-43 z M327 335 h17 v1 h-17 z M457 335 h43 v1 h-43 z M13 336 h43 v1 h-43 z M330 336 h11 v1 h-11 z M456 336 h43 v1 h-43 z M13 337 h43 v1 h-43 z M456 337 h43 v1 h-43 z M13 338 h43 v1 h-43 z M456 338 h43 v1 h-43 z M14 339 h43 v1 h-43 z M455 339 h43 v1 h-43 z M14 340 h43 v1 h-43 z M455 340 h43 v1 h-43 z M14 341 h44 v1 h-44 z M454 341 h44 v1 h-44 z M15 342 h43 v1 h-43 z M454 342 h43 v1 h-43 z M15 343 h44 v1 h-44 z M453 343 h44 v1 h-44 z M15 344 h44 v1 h-44 z M453 344 h44 v1 h-44 z M16 345 h44 v1 h-44 z M452 345 h44 v1 h-44 z M16 346 h44 v1 h-44 z M452 346 h44 v1 h-44 z M17 347 h43 v1 h-43 z M452 347 h43 v1 h-43 z M17 348 h44 v1 h-44 z M451 348 h44 v1 h-44 z M17 349 h44 v1 h-44 z M451 349 h44 v1 h-44 z M18 350 h44 v1 h-44 z M450 350 h44 v1 h-44 z M18 351 h44 v1 h-44 z M450 351 h44 v1 h-44 z M19 352 h44 v1 h-44 z M449 352 h44 v1 h-44 z M19 353 h44 v1 h-44 z M449 353 h44 v1 h-44 z M19 354 h45 v1 h-45 z M448 354 h45 v1 h-45 z M20 355 h44 v1 h-44 z M448 355 h44 v1 h-44 z M20 356 h45 v1 h-45 z M447 356 h45 v1 h-45 z M21 357 h44 v1 h-44 z M447 357 h44 v1 h-44 z M21 358 h45 v1 h-45 z M446 358 h45 v1 h-45 z M21 359 h46 v1 h-46 z M445 359 h46 v1 h-46 z M22 360 h45 v1 h-45 z M445 360 h45 v1 h-45 z M22 361 h46 v1 h-46 z M444 361 h46 v1 h-46 z M23 362 h45 v1 h-45 z M444 362 h45 v1 h-45 z M23 363 h46 v1 h-46 z M443 363 h46 v1 h-46 z M24 364 h45 v1 h-45 z M443 364 h45 v1 h-45 z M24 365 h46 v1 h-46 z M442 365 h46 v1 h-46 z M25 366 h46 v1 h-46 z M441 366 h46 v1 h-46 z M25 367 h46 v1 h-46 z M441 367 h46 v1 h-46 z M26 368 h46 v1 h-46 z M440 368 h46 v1 h-46 z M26 369 h46 v1 h-46 z M440 369 h46 v1 h-46 z M27 370 h46 v1 h-46 z M439 370 h46 v1 h-46 z M27 371 h47 v1 h-47 z M438 371 h47 v1 h-47 z M28 372 h46 v1 h-46 z M438 372 h46 v1 h-46 z M28 373 h47 v1 h-47 z M437 373 h47 v1 h-47 z M29 374 h47 v1 h-47 z M436 374 h47 v1 h-47 z M29 375 h47 v1 h-47 z M436 375 h47 v1 h-47 z M30 376 h47 v1 h-47 z M435 376 h47 v1 h-47 z M30 377 h48 v1 h-48 z M434 377 h48 v1 h-48 z M31 378 h47 v1 h-47 z M434 378 h47 v1 h-47 z M31 379 h48 v1 h-48 z M433 379 h48 v1 h-48 z M32 380 h48 v1 h-48 z M432 380 h48 v1 h-48 z M33 381 h48 v1 h-48 z M431 381 h48 v1 h-48 z M33 382 h48 v1 h-48 z M431 382 h48 v1 h-48 z M34 383 h48 v1 h-48 z M430 383 h48 v1 h-48 z M34 384 h49 v1 h-49 z M429 384 h49 v1 h-49 z M35 385 h49 v1 h-49 z M428 385 h49 v1 h-49 z M35 386 h49 v1 h-49 z M428 386 h49 v1 h-49 z M36 387 h49 v1 h-49 z M427 387 h49 v1 h-49 z M37 388 h49 v1 h-49 z M426 388 h49 v1 h-49 z M37 389 h50 v1 h-50 z M425 389 h50 v1 h-50 z M38 390 h49 v1 h-49 z M425 390 h49 v1 h-49 z M38 391 h50 v1 h-50 z M424 391 h50 v1 h-50 z M39 392 h50 v1 h-50 z M423 392 h50 v1 h-50 z M40 393 h50 v1 h-50 z M422 393 h50 v1 h-50 z M40 394 h51 v1 h-51 z M421 394 h51 v1 h-51 z M41 395 h50 v1 h-50 z M421 395 h50 v1 h-50 z M42 396 h50 v1 h-50 z M420 396 h50 v1 h-50 z M42 397 h51 v1 h-51 z M419 397 h51 v1 h-51 z M43 398 h51 v1 h-51 z M418 398 h51 v1 h-51 z M44 399 h51 v1 h-51 z M417 399 h51 v1 h-51 z M44 400 h52 v1 h-52 z M416 400 h52 v1 h-52 z M45 401 h52 v1 h-52 z M415 401 h52 v1 h-52 z M46 402 h52 v1 h-52 z M414 402 h52 v1 h-52 z M46 403 h53 v1 h-53 z M413 403 h53 v1 h-53 z M47 404 h53 v1 h-53 z M412 404 h53 v1 h-53 z M48 405 h53 v1 h-53 z M411 405 h53 v1 h-53 z M49 406 h52 v1 h-52 z M411 406 h52 v1 h-52 z M49 407 h53 v1 h-53 z M410 407 h53 v1 h-53 z M50 408 h53 v1 h-53 z M409 408 h53 v1 h-53 z M51 409 h53 v1 h-53 z M408 409 h53 v1 h-53 z M52 410 h53 v1 h-53 z M407 410 h53 v1 h-53 z M52 411 h55 v1 h-55 z M405 411 h55 v1 h-55 z M53 412 h55 v1 h-55 z M404 412 h55 v1 h-55 z M54 413 h55 v1 h-55 z M403 413 h55 v1 h-55 z M55 414 h55 v1 h-55 z M402 414 h55 v1 h-55 z M55 415 h56 v1 h-56 z M401 415 h56 v1 h-56 z M56 416 h56 v1 h-56 z M400 416 h56 v1 h-56 z M57 417 h56 v1 h-56 z M399 417 h56 v1 h-56 z M58 418 h56 v1 h-56 z M398 418 h56 v1 h-56 z M59 419 h56 v1 h-56 z M397 419 h56 v1 h-56 z M59 420 h57 v1 h-57 z M396 420 h57 v1 h-57 z M60 421 h58 v1 h-58 z M394 421 h58 v1 h-58 z M61 422 h58 v1 h-58 z M393 422 h58 v1 h-58 z M62 423 h58 v1 h-58 z M392 423 h58 v1 h-58 z M63 424 h58 v1 h-58 z M391 424 h58 v1 h-58 z M64 425 h59 v1 h-59 z M389 425 h59 v1 h-59 z M65 426 h59 v1 h-59 z M388 426 h59 v1 h-59 z M66 427 h59 v1 h-59 z M387 427 h59 v1 h-59 z M66 428 h61 v1 h-61 z M385 428 h61 v1 h-61 z M67 429 h61 v1 h-61 z M384 429 h61 v1 h-61 z M68 430 h61 v1 h-61 z M383 430 h61 v1 h-61 z M69 431 h62 v1 h-62 z M381 431 h62 v1 h-62 z M70 432 h62 v1 h-62 z M380 432 h62 v1 h-62 z M71 433 h62 v1 h-62 z M379 433 h62 v1 h-62 z M72 434 h63 v1 h-63 z M377 434 h63 v1 h-63 z M73 435 h63 v1 h-63 z M376 435 h63 v1 h-63 z M74 436 h64 v1 h-64 z M374 436 h64 v1 h-64 z M75 437 h64 v1 h-64 z M373 437 h64 v1 h-64 z M76 438 h65 v1 h-65 z M371 438 h65 v1 h-65 z M77 439 h65 v1 h-65 z M370 439 h65 v1 h-65 z M78 440 h66 v1 h-66 z M368 440 h66 v1 h-66 z M79 441 h67 v1 h-67 z M366 441 h67 v1 h-67 z M80 442 h67 v1 h-67 z M365 442 h67 v1 h-67 z M81 443 h68 v1 h-68 z M363 443 h68 v1 h-68 z M82 444 h69 v1 h-69 z M361 444 h69 v1 h-69 z M83 445 h70 v1 h-70 z M359 445 h70 v1 h-70 z M85 446 h69 v1 h-69 z M358 446 h69 v1 h-69 z M86 447 h70 v1 h-70 z M356 447 h70 v1 h-70 z M87 448 h71 v1 h-71 z M354 448 h71 v1 h-71 z M88 449 h72 v1 h-72 z M352 449 h72 v1 h-72 z M89 450 h73 v1 h-73 z M350 450 h73 v1 h-73 z M90 451 h74 v1 h-74 z M348 451 h74 v1 h-74 z M91 452 h76 v1 h-76 z M345 452 h76 v1 h-76 z M93 453 h76 v1 h-76 z M343 453 h76 v1 h-76 z M94 454 h77 v1 h-77 z M341 454 h77 v1 h-77 z M95 455 h78 v1 h-78 z M339 455 h78 v1 h-78 z M96 456 h80 v1 h-80 z M336 456 h80 v1 h-80 z M98 457 h81 v1 h-81 z M333 457 h81 v1 h-81 z M99 458 h82 v1 h-82 z M331 458 h82 v1 h-82 z M100 459 h84 v1 h-84 z M328 459 h84 v1 h-84 z M102 460 h85 v1 h-85 z M325 460 h85 v1 h-85 z M103 461 h87 v1 h-87 z M322 461 h87 v1 h-87 z M104 462 h89 v1 h-89 z M319 462 h89 v1 h-89 z M106 463 h90 v1 h-90 z M316 463 h90 v1 h-90 z M107 464 h93 v1 h-93 z M312 464 h93 v1 h-93 z M108 465 h96 v1 h-96 z M308 465 h96 v1 h-96 z M110 466 h98 v1 h-98 z M304 466 h98 v1 h-98 z M111 467 h101 v1 h-101 z M300 467 h101 v1 h-101 z M113 468 h105 v1 h-105 z M294 468 h105 v1 h-105 z M114 469 h110 v1 h-110 z M288 469 h110 v1 h-110 z M116 470 h116 v1 h-116 z M280 470 h116 v1 h-116 z M117 471 h126 v1 h-126 z M269 471 h126 v1 h-126 z M119 472 h274 v1 h-274 z M120 473 h272 v1 h-272 z M122 474 h268 v1 h-268 z M124 475 h264 v1 h-264 z M125 476 h262 v1 h-262 z M127 477 h258 v1 h-258 z M129 478 h254 v1 h-254 z M131 479 h250 v1 h-250 z M132 480 h248 v1 h-248 z M134 481 h244 v1 h-244 z M136 482 h240 v1 h-240 z M138 483 h236 v1 h-236 z M140 484 h232 v1 h-232 z M142 485 h228 v1 h-228 z M144 486 h224 v1 h-224 z M146 487 h220 v1 h-220 z M148 488 h216 v1 h-216 z M150 489 h212 v1 h-212 z M152 490 h208 v1 h-208 z M155 491 h202 v1 h-202 z M157 492 h198 v1 h-198 z M160 493 h192 v1 h-192 z M162 494 h188 v1 h-188 z M165 495 h182 v1 h-182 z M167 496 h178 v1 h-178 z M170 497 h172 v1 h-172 z M173 498 h166 v1 h-166 z M176 499 h160 v1 h-160 z M179 500 h154 v1 h-154 z M182 501 h148 v1 h-148 z M186 502 h140 v1 h-140 z M189 503 h134 v1 h-134 z M193 504 h126 v1 h-126 z M197 505 h118 v1 h-118 z M201 506 h110 v1 h-110 z M206 507 h100 v1 h-100 z M212 508 h88 v1 h-88 z M217 509 h78 v1 h-78 z M225 510 h62 v1 h-62 z M235 511 h42 v1 h-42 z"/></svg>
